<svg width="10" height="10" viewBox="0 0 10 10" fill="none" xmlns="http://www.w3.org/2000/svg">
<path fill-rule="evenodd" clip-rule="evenodd" d="M4.99935 4.17504L8.08687 1.08752C8.31468 0.859713 8.68402 0.859713 8.91183 1.08752C9.13963 1.31532 9.13963 1.68467 8.91183 1.91248L5.82431 5L8.91183 8.08752C9.13963 8.31532 9.13963 8.68467 8.91183 8.91248C8.68402 9.14028 8.31468 9.14028 8.08687 8.91248L4.99935 5.82496L1.91183 8.91248C1.68402 9.14028 1.31468 9.14028 1.08687 8.91248C0.859064 8.68467 0.859064 8.31532 1.08687 8.08752L4.17439 5L1.08687 1.91248C0.859064 1.68467 0.859064 1.31532 1.08687 1.08752C1.31468 0.859713 1.68402 0.859713 1.91183 1.08752L4.99935 4.17504Z" fill="#888888"/>
<mask id="mask0_0_5211" style="mask-type:luminance" maskUnits="userSpaceOnUse" x="0" y="0" width="10" height="10">
<path fill-rule="evenodd" clip-rule="evenodd" d="M4.99935 4.17504L8.08687 1.08752C8.31468 0.859713 8.68402 0.859713 8.91183 1.08752C9.13963 1.31532 9.13963 1.68467 8.91183 1.91248L5.82431 5L8.91183 8.08752C9.13963 8.31532 9.13963 8.68467 8.91183 8.91248C8.68402 9.14028 8.31468 9.14028 8.08687 8.91248L4.99935 5.82496L1.91183 8.91248C1.68402 9.14028 1.31468 9.14028 1.08687 8.91248C0.859064 8.68467 0.859064 8.31532 1.08687 8.08752L4.17439 5L1.08687 1.91248C0.859064 1.68467 0.859064 1.31532 1.08687 1.08752C1.31468 0.859713 1.68402 0.859713 1.91183 1.08752L4.99935 4.17504Z" fill="white"/>
</mask>
<g mask="url(#mask0_0_5211)">
</g>
</svg>
