<svg width="22" height="22" viewBox="0 0 22 22" fill="none" xmlns="http://www.w3.org/2000/svg">
<path fill-rule="evenodd" clip-rule="evenodd" d="M5.37742 2.69214C9.35666 0.00346601 14.6853 0.523149 18.07 3.93001L18.12 3.95001C21.5269 7.33477 22.0466 12.6634 19.3579 16.6426C16.6692 20.6219 11.5315 22.1279 7.12004 20.23C6.91816 20.1449 6.69757 20.1139 6.48004 20.14L2.20004 21H2.00004C1.72733 21.007 1.46363 20.9022 1.27004 20.71C1.03263 20.4714 0.931166 20.1294 1.00004 19.8L1.88004 15.57C1.91739 15.3525 1.88593 15.1288 1.79004 14.93C-0.107871 10.5185 1.39819 5.38081 5.37742 2.69214ZM6.00004 11C6.00004 11.5523 6.44775 12 7.00004 12C7.55232 12 8.00004 11.5523 8.00004 11C8.00004 10.4477 7.55232 10 7.00004 10C6.44775 10 6.00004 10.4477 6.00004 11ZM11 12C10.4478 12 10 11.5523 10 11C10 10.4477 10.4478 10 11 10C11.5523 10 12 10.4477 12 11C12 11.5523 11.5523 12 11 12ZM14 11C14 11.5523 14.4478 12 15 12C15.5523 12 16 11.5523 16 11C16 10.4477 15.5523 10 15 10C14.4478 10 14 10.4477 14 11Z" fill="black"/>
</svg>
