<svg width="16" height="20" viewBox="0 0 16 20" fill="none" xmlns="http://www.w3.org/2000/svg">
<path fill-rule="evenodd" clip-rule="evenodd" d="M11.3 0.33L15.74 5.33C15.9067 5.5134 15.9994 5.75216 16 6V17.5C15.9921 18.171 15.7179 18.8114 15.2378 19.2802C14.7577 19.7491 14.111 20.008 13.44 20H2.56C1.88899 20.008 1.24229 19.7491 0.762182 19.2802C0.282078 18.8114 0.00790949 18.171 0 17.5V2.5C0.00790949 1.82899 0.282078 1.1886 0.762182 0.719754C1.24229 0.250903 1.88899 -0.00800388 2.56 -4.37285e-08H10.56C10.8422 0.00066692 11.1109 0.120521 11.3 0.33ZM8 10H5C4.44772 10 4 10.4477 4 11C4 11.5523 4.44772 12 5 12H8C8.55229 12 9 11.5523 9 11C9 10.4477 8.55229 10 8 10ZM5 16C4.44772 16 4 15.5523 4 15C4 14.4477 4.44772 14 5 14H11C11.5523 14 12 14.4477 12 15C12 15.5523 11.5523 16 11 16H5ZM10 5.15C9.96519 5.57957 10.2811 5.95776 10.71 6H13.74L10 2V5.15Z" fill="black"/>
</svg>
